@startuml
title Elevator

[*] --> Main
End --> [*]
Main : Engine
Main --> Middle
Middle : Engine + Engine | Engine + Engine + Engine + Engine
Middle --> End

state Engine {
    [*] --> Idle
    DoorClosing --> Idle
    DoorClosing --> MovingUp
    DoorClosing --> MovingDown
    DoorOpening --> Idle
    Idle --> DoorClosing
    MovingDown --> DoorOpening
    MovingUp --> DoorOpening
}

@enduml
