@startuml
title ElevatorMini

[*] --> Main
Main : Cabin | Motor
Main --> [*]

state Motor {
    [*] --> Idle
    Stop --> Idle
    Up --> Stop
    Down --> Stop
    Idle --> Up
    Idle --> Down
    Idle --> Stop
}

state Cabin {
    [*] --> Idle
    Moving --> AtFloor
    AtFloor --> Idle
    Idle --> Moving
}

@enduml
